<svg width="19" height="15" viewBox="0 0 19 15" fill="none" xmlns="http://www.w3.org/2000/svg">
<path fill-rule="evenodd" clip-rule="evenodd" d="M1.27002 3.59613C0.243806 4.07914 0.243181 5.68425 1.26902 6.16822L3.60877 7.27209V10.535C3.60877 11.4093 4.10022 12.192 4.84205 12.499L9.31069 14.3484L13.7793 12.499C14.5212 12.192 15.0126 11.4093 15.0126 10.535V7.47357L16.2797 6.82539V11.271L15.6462 12.2032C14.8631 13.3556 15.6081 15 16.9133 15C18.2184 15 18.9635 13.3556 18.1804 12.2032L17.5468 11.271V6.17324C18.4608 5.61752 18.4046 4.11328 17.415 3.66014L9.65493 0.106766C9.34006 -0.0374153 8.98583 -0.0354935 8.67226 0.112096L1.27002 3.59613ZM9.16934 1.39838L1.7671 4.88241L9.72527 8.63698L16.9294 4.95175L9.16934 1.39838ZM4.87586 10.535V7.86989L9.22719 9.9228C9.5575 10.0786 9.93222 10.0724 10.2581 9.90569L13.7455 8.12174V10.535C13.7455 10.8264 13.5817 11.0873 13.3344 11.1896L9.31069 12.8549L5.28696 11.1896C5.03968 11.0873 4.87586 10.8264 4.87586 10.535ZM16.6598 13.0423L16.9133 12.6694L17.1667 13.0423C17.3233 13.2727 17.1743 13.6016 16.9133 13.6016C16.6522 13.6016 16.5032 13.2727 16.6598 13.0423Z" fill="black"/>
</svg>
