<svg width="16" height="16" viewBox="0 0 16 16" fill="none" xmlns="http://www.w3.org/2000/svg">
<path d="M5.8533 6.19995C5.8533 5.81335 5.53992 5.5 5.15332 5.5C4.76669 5.5 4.45331 5.81335 4.45331 6.19995V11.2C4.45331 11.5865 4.76669 11.8999 5.15332 11.8999C5.53992 11.8999 5.8533 11.5865 5.8533 11.2V6.19995Z" fill="#5F16F9"/>
<path d="M7.8533 6.19995C7.8533 5.81335 7.53992 5.5 7.15332 5.5C6.76669 5.5 6.45331 5.81335 6.45331 6.19995V11.2C6.45331 11.5865 6.76669 11.8999 7.15332 11.8999C7.53992 11.8999 7.8533 11.5865 7.8533 11.2V8.69995C7.8533 7.98193 8.43533 7.3999 9.15332 7.3999C9.87128 7.3999 10.4533 7.98193 10.4533 8.69995V11.2C10.4533 11.5865 10.7667 11.8999 11.1533 11.8999C11.5399 11.8999 11.8533 11.5865 11.8533 11.2V8.69995C11.8533 7.20874 10.6445 6 9.15332 6C8.68201 6 8.23895 6.12073 7.8533 6.33289V6.19995Z" fill="#5F16F9"/>
<path d="M5.15332 4.69995C5.7056 4.69995 6.15332 4.2522 6.15332 3.69995C6.15332 3.14771 5.7056 2.69995 5.15332 2.69995C4.60104 2.69995 4.15332 3.14771 4.15332 3.69995C4.15332 4.2522 4.60104 4.69995 5.15332 4.69995Z" fill="#5F16F9"/>
<path fill-rule="evenodd" clip-rule="evenodd" d="M1.70001 0C0.761108 0 0 0.761108 0 1.69995V13.7C0 14.6388 0.761108 15.3999 1.70001 15.3999H13.7C14.6389 15.3999 15.4 14.6388 15.4 13.7V1.69995C15.4 0.761108 14.6389 0 13.7 0H1.70001ZM1.39999 1.69995C1.39999 1.5343 1.5343 1.3999 1.70001 1.3999H13.7C13.8657 1.3999 14 1.5343 14 1.69995V13.7C14 13.8656 13.8657 14 13.7 14H1.70001C1.5343 14 1.39999 13.8656 1.39999 13.7V1.69995Z" fill="#5F16F9"/>
</svg>
