<svg width="16" height="17" viewBox="0 0 16 17" fill="none" xmlns="http://www.w3.org/2000/svg">
<path d="M4.5 5.85C4.14101 5.85 3.85 6.14102 3.85 6.5C3.85 6.85898 4.14101 7.15 4.5 7.15V5.85ZM5.5 7.15C5.85898 7.15 6.15 6.85898 6.15 6.5C6.15 6.14102 5.85898 5.85 5.5 5.85V7.15ZM10.5 5.85C10.141 5.85 9.85 6.14102 9.85 6.5C9.85 6.85898 10.141 7.15 10.5 7.15V5.85ZM11.5 7.15C11.859 7.15 12.15 6.85898 12.15 6.5C12.15 6.14102 11.859 5.85 11.5 5.85V7.15ZM5.52 9.61C5.30461 9.32281 4.89719 9.26461 4.61 9.48C4.32281 9.69539 4.26461 10.1028 4.48 10.39L5.52 9.61ZM11.52 10.39C11.7354 10.1028 11.6772 9.69539 11.39 9.48C11.1028 9.26461 10.6954 9.32281 10.48 9.61L11.52 10.39ZM0.35 6C0.35 6.35898 0.641015 6.65 1 6.65C1.35899 6.65 1.65 6.35898 1.65 6H0.35ZM5.5 2.15C5.85898 2.15 6.15 1.85899 6.15 1.5C6.15 1.14101 5.85898 0.85 5.5 0.85V2.15ZM1.65 11C1.65 10.641 1.35899 10.35 1 10.35C0.641015 10.35 0.35 10.641 0.35 11H1.65ZM5.5 16.15C5.85898 16.15 6.15 15.859 6.15 15.5C6.15 15.141 5.85898 14.85 5.5 14.85V16.15ZM10.5 0.85C10.141 0.85 9.85 1.14101 9.85 1.5C9.85 1.85899 10.141 2.15 10.5 2.15V0.85ZM14.35 6C14.35 6.35898 14.641 6.65 15 6.65C15.359 6.65 15.65 6.35898 15.65 6H14.35ZM10.5 14.85C10.141 14.85 9.85 15.141 9.85 15.5C9.85 15.859 10.141 16.15 10.5 16.15V14.85ZM15.65 11C15.65 10.641 15.359 10.35 15 10.35C14.641 10.35 14.35 10.641 14.35 11H15.65ZM4.5 7.15H5.5V5.85H4.5V7.15ZM10.5 7.15H11.5V5.85H10.5V7.15ZM10.48 9.61C9.24 11.2633 6.76 11.2633 5.52 9.61L4.48 10.39C6.24 12.7367 9.76 12.7367 11.52 10.39L10.48 9.61ZM1.65 6V3.5H0.35V6H1.65ZM3 2.15H5.5V0.85H3V2.15ZM1.65 3.5C1.65 2.75442 2.25442 2.15 3 2.15V0.85C1.53645 0.85 0.35 2.03645 0.35 3.5H1.65ZM0.35 11V13.5H1.65V11H0.35ZM3 16.15H5.5V14.85H3V16.15ZM0.35 13.5C0.35 14.9636 1.53645 16.15 3 16.15V14.85C2.25442 14.85 1.65 14.2456 1.65 13.5H0.35ZM10.5 2.15H13V0.85H10.5V2.15ZM14.35 3.5V6H15.65V3.5H14.35ZM13 2.15C13.7456 2.15 14.35 2.75442 14.35 3.5H15.65C15.65 2.03645 14.4636 0.85 13 0.85V2.15ZM10.5 16.15H13V14.85H10.5V16.15ZM15.65 13.5V11H14.35V13.5H15.65ZM13 16.15C14.4636 16.15 15.65 14.9636 15.65 13.5H14.35C14.35 14.2456 13.7456 14.85 13 14.85V16.15Z" fill="black"/>
</svg>
