<svg id="Calque_1" data-name="Calque 1" xmlns="http://www.w3.org/2000/svg" xmlns:xlink="http://www.w3.org/1999/xlink" viewBox="0 0 427.71 351.35"><defs><style>.cls-1,.cls-10,.cls-11,.cls-14,.cls-15,.cls-16,.cls-2,.cls-3,.cls-4,.cls-5,.cls-6,.cls-7,.cls-8,.cls-9{fill:none;stroke:#fff;stroke-miterlimit:10;}.cls-2{stroke-width:0.7px;}.cls-3{stroke-width:0.67px;}.cls-4{stroke-width:0.67px;}.cls-5{stroke-width:0.59px;}.cls-6{stroke-width:0.79px;}.cls-7{stroke-width:0.66px;}.cls-8{stroke-width:0.62px;}.cls-9{stroke-width:0.87px;}.cls-10{stroke-width:0.75px;}.cls-11{stroke-width:0.75px;}.cls-12{clip-path:url(#clip-path);}.cls-13{fill:#fff;}.cls-14{stroke-width:0.83px;}.cls-15{stroke-width:1.12px;}.cls-16{stroke-width:0.88px;}</style><clipPath id="clip-path"><path id="_Masque_" data-name="&lt;Masque&gt;" class="cls-1" d="M103.88,235.48,90.16,251.8,67.5,298.55s1.6,4.7,7.38,3.2l23.46-46,1.28-3.49Z"/></clipPath></defs><title>Plan de travail 1</title><g id="sac"><path class="cls-2" d="M178.32,45.61S188.82,34.87,194,65.39c0,0,34.18-6.83,39.06-6.1l-6.1-22.22a9.58,9.58,0,0,0-9-2L181.25,41S178.56,43.17,178.32,45.61Z"/><line class="cls-2" x1="192.48" y1="45.61" x2="195.9" y2="45.13"/><path class="cls-2" d="M194,65.39s.41,8.29,4.17,7,1.48-8.12,1.48-8.12"/><path class="cls-2" d="M217.45,60.85S218,69,222.17,69s1.4-7,.74-8.63"/><polyline class="cls-2" points="178.32 45.61 177.55 47.6 180.44 47.3 180.6 50.34 185.16 50.04 185.62 52.17 189.27 49.58"/><path class="cls-2" d="M195.85,38.64l1.21-.23,2.41-4s4-2.59,12.94-3.05L211.67,36l2.24-.36.33-4.22s4.42-2.89-2.44-4.56-16.28,3.19-16.28,3.19-1.53,2.9.3,3.5Z"/><path class="cls-2" d="M177.55,47.6s-4.41,38.21-5.18,38.67,5.64,0,5.64,0l.45,4.57h5.79l5.48,4.87s34.86-12.94,42.47-12.49c0,0-3.95-21.92-3.65-23.75"/><path class="cls-2" d="M180.6,50.34s1.06,28.47-2.59,35.93"/><line class="cls-2" x1="185.62" y1="52.17" x2="185.32" y2="88.25"/><rect class="cls-3" x="200.06" y="56.27" width="5.68" height="10.05" rx="2.84" ry="2.84" transform="translate(-9.05 59.98) rotate(-16.45)"/><rect class="cls-4" x="222.78" y="53.4" width="5.62" height="10.05" rx="2.81" ry="2.81" transform="translate(-7.31 66.29) rotate(-16.45)"/><line class="cls-5" x1="199.05" y1="44.55" x2="202.1" y2="43.94"/><line class="cls-4" x1="204.98" y1="43.46" x2="208.63" y2="42.64"/><line class="cls-4" x1="213.02" y1="42" x2="216.95" y2="41.18"/><rect class="cls-6" x="201.54" y="58.4" width="2.71" height="6.27" rx="1" ry="1" transform="translate(-9.12 59.52) rotate(-16.33)"/><rect class="cls-6" x="224.16" y="55.22" width="2.71" height="6.27" rx="1" ry="1" transform="translate(-7.31 65.75) rotate(-16.33)"/></g><g id="ordi"><rect class="cls-7" x="269.34" y="66.31" width="43.27" height="30.95" rx="1" ry="1"/><path class="cls-7" d="M312.26,97.56l-42.89.19a.66.66,0,0,0-.66.66l-7.89,11.77a.66.66,0,0,0,.65.66h56.17a.67.67,0,0,0,.66-.66l-5.39-12A.66.66,0,0,0,312.26,97.56Z"/><rect class="cls-7" x="272.6" y="70.97" width="36.67" height="23.02" rx="1" ry="1"/><rect class="cls-7" x="281.98" y="107.89" width="16.64" height="1.35" rx="0.67" ry="0.67"/><rect class="cls-7" x="269.36" y="103.67" width="4.14" height="1.62" rx="0.81" ry="0.81"/><rect class="cls-7" x="275.61" y="103.67" width="4.14" height="1.62" rx="0.81" ry="0.81"/><rect class="cls-7" x="281.46" y="103.67" width="4.14" height="1.62" rx="0.81" ry="0.81"/><rect class="cls-7" x="287.62" y="103.67" width="4.14" height="1.62" rx="0.81" ry="0.81"/><rect class="cls-7" x="293.91" y="103.67" width="4.14" height="1.62" rx="0.81" ry="0.81"/><rect class="cls-7" x="299.96" y="103.67" width="4.14" height="1.62" rx="0.81" ry="0.81"/><rect class="cls-7" x="305.89" y="103.67" width="4.14" height="1.62" rx="0.81" ry="0.81"/><rect class="cls-7" x="269.36" y="100.33" width="4.14" height="1.62" rx="0.81" ry="0.81"/><rect class="cls-7" x="275.61" y="100.33" width="4.14" height="1.62" rx="0.81" ry="0.81"/><rect class="cls-7" x="281.46" y="100.33" width="4.14" height="1.62" rx="0.81" ry="0.81"/><rect class="cls-7" x="287.62" y="100.33" width="4.14" height="1.62" rx="0.81" ry="0.81"/><rect class="cls-7" x="293.91" y="100.33" width="4.14" height="1.62" rx="0.81" ry="0.81"/><rect class="cls-7" x="299.96" y="100.33" width="4.14" height="1.62" rx="0.81" ry="0.81"/><rect class="cls-7" x="305.89" y="100.33" width="4.14" height="1.62" rx="0.81" ry="0.81"/><line class="cls-7" x1="280.96" y1="89.63" x2="289.97" y2="78.77"/><line class="cls-7" x1="291.04" y1="77.51" x2="293.22" y2="75.06"/><line class="cls-7" x1="289.4" y1="87.16" x2="295.53" y2="79.86"/></g><g id="lunettes"><path class="cls-8" d="M308.58,169.66s-3.4-1.17-2.83-5.48,3.71-5.37,7.14-3.64,11.24,5.91,11.24,5.91l.17,4.47-14-8.79A7.78,7.78,0,0,0,308.58,169.66Z"/><path class="cls-8" d="M342.39,155.46s2.36,3.08,3.26,2.3.09-7.28,3.47-6.66,12.76,6.59,12.76,6.59,4.42-1.48,5.38-.95-17.33-9-18.61-8.24S344.06,150.55,342.39,155.46Z"/><path class="cls-8" d="M326.49,172.15s6.29-6.21,20.16-4.51c0,0,2.17-1.76,6.47-1.56,0,0,5.36-6.18,16.86-3.08,0,0,2.17-1.95.73-5.44s-18.13,4.25-17.85,6.48c0,0-5.67-1.83-6.85,1.57,0,0-11.16-4-21.22,1.2C324.79,166.81,323,171.44,326.49,172.15Z"/><path class="cls-8" d="M328.3,170.52s-2.14,10.24,4.37,11a22.58,22.58,0,0,0,10.65-.94s5.12-3.27,2.3-13"/><path class="cls-8" d="M354.43,164.69s-3.1,10.19,5.13,12.41,10.18-8.28,10.18-8.28.49-5.62-.41-6.11"/><line class="cls-8" x1="334.45" y1="180.09" x2="338.46" y2="170.47"/><line class="cls-8" x1="340.16" y1="175.92" x2="341.97" y2="170.69"/><line class="cls-8" x1="359.61" y1="176.22" x2="362.14" y2="169.2"/><line class="cls-8" x1="367.07" y1="163.23" x2="365.38" y2="167.06"/></g><g id="chapeau"><polygon class="cls-9" points="342.98 205.16 362.29 215.33 391.39 207.99 366.1 201.41 342.98 205.16"/><path class="cls-9" d="M353.61,213.82l.24,17s14.27,12.77,29.58-2l.33-15.62-21.89,5.43Z"/><polyline class="cls-9" points="342.05 204.95 341.9 207.05 362.05 218.2 392.82 211 392.82 208.01"/><polyline class="cls-9" points="370.18 206.33 350.8 209.9 350.31 238.44"/><polygon class="cls-9" points="350.23 240.23 348.43 244.22 352.04 243.98 350.23 240.23"/></g><g id="hand_heart" data-name="hand heart"><path class="cls-10" d="M370.74,294.6c-26.62.92-13.57-12.78-13.57-12.78l4.08,1.4c4.08,1.39,4.87-1.16,4.87-1.16l-1.26-2.77-1.27-.39,1.16-.5s-5.4-5.31-9.79-5-10,10.78-10,10.78l-.17,1.17-.19,1.32c-3.47,8.31.45,22,.45,22s12,.48,11.16-.17,1.13-4.75,1.13-4.75l15.1-4.77C372.77,295.78,370.74,294.6,370.74,294.6Z"/><path class="cls-10" d="M344.76,285.85s7.16-9,10.16-9.09,8.67,2.14,8.67,2.14"/><path class="cls-10" d="M371.73,294.27c20.66-16.16,1.44-18.2,1.44-18.2l-2.11,3.63c-2.12,3.63-4.46,2.21-4.46,2.21l-1-2.88.68-1.1-1.21.36s.41-7.41,3.9-10,15,1.76,15,1.76l.93.77,1.05.87c8.31,4.06,14.76,16.84,14.76,16.84s-8.7,7.95-8.51,6.93-4.11-2.85-4.11-2.85l-14.64,5.95C371,296.43,371.73,294.27,371.73,294.27Z"/><path class="cls-10" d="M385.27,271.25s-11.58-2.26-13.89-.41-5.05,7.09-5.05,7.09"/><line class="cls-10" x1="351.35" y1="268.82" x2="344.85" y2="264.05"/><line class="cls-10" x1="359.58" y1="264.74" x2="356.15" y2="255.81"/><line class="cls-10" x1="368.26" y1="262.26" x2="369.57" y2="255.44"/><line class="cls-10" x1="379.35" y1="257.06" x2="376.85" y2="263.6"/><line class="cls-10" x1="345.07" y1="275.28" x2="339.01" y2="273.13"/></g><g id="roller"><path class="cls-1" d="M29.86,193.13a8,8,0,0,1,2.08-3.71,8.34,8.34,0,0,1,4-1.63c4.61-.93,9.34-1.13,14-1.92s9.32-2.24,12.9-5.29,5.86-8,4.75-12.53l27.89,0-.54,27.27c0,1.64-.17,3.51-1.47,4.51a5.53,5.53,0,0,1-3.11.81L78,201.35c-10.25.61-20.51,1.22-30.78,1.22-4.67,0-11.39,1.33-15.82-.46C27.45,200.53,28.89,196.23,29.86,193.13Z"/><path class="cls-1" d="M68.23,167.94a4.19,4.19,0,0,1-.77-6.58A7.76,7.76,0,0,1,72,160a104.5,104.5,0,0,1,19,.2,12,12,0,0,1,4.81,1.21,4.46,4.46,0,0,1,2.43,4.05c-.17,1.66-2,3.07-3.56,2.4"/><path class="cls-1" d="M32.14,202.79a5.33,5.33,0,0,0-2.85-.8,2,2,0,0,0-1.93,1.92c.11,1.49,2.09,1.89,3.59,1.88l56.12-.7c1.73,0,3.59-.09,5-1.12s1.88-3.43.47-4.45"/><path class="cls-1" d="M41.44,186.94a16.25,16.25,0,0,0,1.82,4.29,6.66,6.66,0,0,0,2,2.25,3.14,3.14,0,0,0,2.92.31,1.6,1.6,0,0,0,.91-2,5.15,5.15,0,0,0-.61-1.38,25.33,25.33,0,0,0-3.09-4.12"/><path class="cls-1" d="M49.72,185.65c1.61,1.93,2.65,4.42,4.75,5.81a3.56,3.56,0,0,0,2.05.67A1.91,1.91,0,0,0,58.25,191a3,3,0,0,0-.75-2.62,25.08,25.08,0,0,0-3.17-3.66"/><path class="cls-1" d="M58.48,183.18a15.91,15.91,0,0,0,3.58,3.17,5.55,5.55,0,0,0,2.56,1A2.5,2.5,0,0,0,67,186.23a2.56,2.56,0,0,0-.19-2.41A8,8,0,0,0,65.09,182l-1.64-1.4"/><path class="cls-1" d="M65.33,177.74l1.1.36c2.64.88,5.45,1.76,8.17,1.17a1.66,1.66,0,0,0,1.1-.6,1.5,1.5,0,0,0-.08-1.45,6,6,0,0,0-3.9-2.75A14.7,14.7,0,0,0,67,173.9"/><path class="cls-1" d="M68.07,171.54a18.09,18.09,0,0,0,6,.69,3.93,3.93,0,0,0,2.61-1.15,1.88,1.88,0,0,0-.09-2.61"/><circle class="cls-11" cx="79.73" cy="180.23" r="1.93"/><circle class="cls-11" cx="72.44" cy="190.83" r="1.93"/><circle class="cls-11" cx="60.61" cy="195.41" r="1.93"/><circle class="cls-11" cx="51.06" cy="197.16" r="1.93"/><circle class="cls-11" cx="81.38" cy="171.86" r="1.93"/><ellipse class="cls-1" cx="40.36" cy="217.09" rx="9.64" ry="8.69"/><ellipse class="cls-1" cx="84.25" cy="217.64" rx="9.64" ry="8.69"/><circle class="cls-1" cx="39.79" cy="216.72" r="3.78"/><circle class="cls-1" cx="84.29" cy="217.83" r="3.78"/></g><g id="crayon"><path class="cls-1" d="M98.36,242.21s.4,3.59,3.32,1.66"/><g class="cls-12"><path class="cls-13" d="M99.45,244a2.84,2.84,0,0,1-1.26-2.13,5.45,5.45,0,0,1,1.46-3.58,29.27,29.27,0,0,1,2.84-3.15,8.48,8.48,0,0,1,2.93-2,2.6,2.6,0,0,1,1.26-.16,2.54,2.54,0,0,1,1,.42,3.72,3.72,0,0,1,.83,6.11,23.93,23.93,0,0,1-4.6,3.23C102.56,243.59,101.16,245.05,99.45,244Z"/></g><path id="_Masque_2" data-name="&lt;Masque&gt;" class="cls-1" d="M103.88,235.48,90.16,251.8,67.5,298.55s1.6,4.7,7.38,3.2l23.46-46,1.28-3.49Z"/><path class="cls-1" d="M67.5,298.55s-3.66,1.22-1.54,3.3,7.67,2.62,7.67,2.62,3.06-.85,1.25-2.72"/><path class="cls-1" d="M64.13,304.56s2.86,5.82,7.23,3.83l2.27-3.92s-7.26-1-8-3.14Z"/><path class="cls-1" d="M64.13,304.56l-1,2.26-3.41,7.34s4.6,7.91,8.7,1.44l2.1-5.06.89-2.15"/><path class="cls-1" d="M63.08,306.82s1.82,5.45,7.18,4"/><path class="cls-1" d="M90.55,251.25s1.66,2.46,4.78-1.19l-22,46.79"/><path class="cls-1" d="M98.34,255.74s-4.35,1.73-3-5.68"/></g><g id="tea"><path class="cls-1" d="M93.72,84.44s9.94,8.23,30.42,1.91C124,79.46,96.59,80,93.72,84.44Z"/><path class="cls-1" d="M93.72,84.44,96,123.66s16.46,11.86,27.17-.57l1-36.74"/><path class="cls-1" d="M97,86.35s13.82-5.83,24.15.87"/><path class="cls-1" d="M124,92.38c5.06-1.44,33.21,16.15-.6,22.77"/><path class="cls-13" d="M105.62,78.14a3,3,0,0,0-1-3.38c-.9-.87-2.1-1.45-3.06-2.5a3.84,3.84,0,0,1-1-1.9,3.11,3.11,0,0,1,.43-2.18c.75-1.24,1.84-2,2.33-3.08a4.16,4.16,0,0,0,.16-3.4c-.4-1.14-1.26-2.17-1.78-3.45a5.86,5.86,0,0,1-.11-4,15.81,15.81,0,0,1,1.76-3.54,19.93,19.93,0,0,0-1.29,3.66,5.31,5.31,0,0,0,.34,3.61c.55,1.1,1.42,2.11,2,3.41a5.18,5.18,0,0,1-.15,4.19c-.68,1.32-1.82,2.12-2.42,3.12a2.27,2.27,0,0,0-.38,1.56,3.45,3.45,0,0,0,.73,1.55c.74,1,1.91,1.65,2.82,2.65a4.15,4.15,0,0,1,1,1.79A2.29,2.29,0,0,1,105.62,78.14Z"/><path class="cls-13" d="M112.28,61a8.94,8.94,0,0,0,0,3A3.5,3.5,0,0,0,114,66.23a7,7,0,0,1,2.43,2.22,3.91,3.91,0,0,1,0,3.45,3.7,3.7,0,0,1-1.16,1.36,4.81,4.81,0,0,1-1.58.66,3.19,3.19,0,0,0-1.25.52,2.16,2.16,0,0,0-.67,1.1,8.4,8.4,0,0,0-.06,3,4.44,4.44,0,0,1-.62,3.07c1-2-.56-3.94-.08-6.23a2.8,2.8,0,0,1,.86-1.57,3.89,3.89,0,0,1,1.55-.77,4.08,4.08,0,0,0,1.28-.55,2.73,2.73,0,0,0,.84-1,3,3,0,0,0,.08-2.58,6.88,6.88,0,0,0-2.06-2,5.65,5.65,0,0,1-1.16-1.18,3.46,3.46,0,0,1-.56-1.59A7.84,7.84,0,0,1,112.28,61Z"/></g><polygon class="cls-14" points="283.51 131.57 290.43 135.47 297.56 131.97 296 139.75 301.52 145.46 293.64 146.37 289.92 153.39 286.61 146.18 278.79 144.81 284.63 139.43 283.51 131.57"/><polygon class="cls-1" points="45.82 250.96 54.13 255.63 62.68 251.43 60.81 260.78 67.44 267.62 57.98 268.72 53.52 277.14 49.55 268.48 40.16 266.85 47.17 260.39 45.82 250.96"/><polygon class="cls-1" points="123.91 142.43 132.21 147.1 140.77 142.91 138.89 152.25 145.52 159.09 136.06 160.19 131.6 168.61 127.63 159.95 118.24 158.32 125.25 151.86 123.91 142.43"/><polygon class="cls-1" points="244.81 39.35 253.12 44.02 261.68 39.83 259.8 49.17 266.43 56.01 256.97 57.12 252.51 65.54 248.54 56.88 239.15 55.24 246.16 48.79 244.81 39.35"/><polygon class="cls-1" points="316.13 208.32 324.44 212.99 332.99 208.8 331.12 218.14 337.75 224.98 328.29 226.09 323.83 234.51 319.86 225.85 310.47 224.21 317.48 217.76 316.13 208.32"/><ellipse class="cls-15" cx="340.73" cy="111.5" rx="14.55" ry="14.69"/><ellipse class="cls-15" cx="67.66" cy="132.69" rx="14.55" ry="14.69"/><ellipse class="cls-16" cx="146.11" cy="57.06" rx="11.49" ry="11.6"/><ellipse class="cls-16" cx="243.36" cy="122.48" rx="11.49" ry="11.6"/></svg>