<svg id="Calque_1" data-name="Calque 1" xmlns="http://www.w3.org/2000/svg" xmlns:xlink="http://www.w3.org/1999/xlink"
     viewBox="0 0 76.72 87.17">
  <defs>
    <style>
      .cls-1,.cls-2,.cls-3,.cls-4,.cls-5{fill:none;stroke:#fff;stroke-miterlimit:10;}.cls-1{stroke-width:0.88px;}.cls-2{stroke-width:0.84px;}.cls-3{stroke-width:0.83px;}.cls-4{stroke-width:0.74px;}.cls-5{stroke-width:0.99px;}
    </style>
    <symbol id="bag" data-name="bag" viewBox="0 0 76.72 87.17">
      <g id="sac">
        <path class="cls-1"
              d="M7.93,24.21S21,10.82,27.41,48.87c0,0,42.62-8.52,48.71-7.61l-7.61-27.7S63.64,9,57.25,11.12L11.58,18.43S8.23,21.17,7.93,24.21Z"/>
        <line class="cls-1" x1="25.59" y1="24.21" x2="29.85" y2="23.6"/>
        <path class="cls-1" d="M27.41,48.87s.51,10.34,5.21,8.78,1.84-10.12,1.84-10.12"/>
        <path class="cls-1" d="M56.72,43.2s.64,10.12,5.88,10.12,1.75-8.74.92-10.76"/>
        <polyline class="cls-1"
                  points="7.93 24.21 6.97 26.69 10.58 26.31 10.77 30.11 16.46 29.73 17.03 32.38 21.59 29.16"/>
        <path class="cls-1"
              d="M29.78,15.51l1.51-.27,3-5.06S39.24,7,50.44,6.38l-.93,5.89,2.79-.44.41-5.26S58.22,3,49.68.88s-20.31,4-20.31,4-1.9,3.61.38,4.37Z"/>
        <path class="cls-1"
              d="M7,26.69S1.47,74.33.52,74.9s7,0,7,0l.57,5.7h7.21l6.84,6.07s43.46-16.13,53-15.56c0,0-4.93-27.34-4.55-29.62"/>
        <path class="cls-1" d="M10.77,30.11S12.1,65.6,7.54,74.9"/>
        <line class="cls-1" x1="17.03" y1="32.38" x2="16.65" y2="77.37"/>
        <path class="cls-2"
              d="M40.35,49.77h0A3.54,3.54,0,0,1,36,47.38l-1.54-5.22a3.55,3.55,0,0,1,2.39-4.4h0a3.56,3.56,0,0,1,4.41,2.39l1.54,5.22A3.55,3.55,0,0,1,40.35,49.77Z"/>
        <path class="cls-3"
              d="M68.63,46.2h0a3.52,3.52,0,0,1-4.35-2.37l-1.56-5.3a3.51,3.51,0,0,1,2.37-4.35h0a3.52,3.52,0,0,1,4.35,2.37L71,41.85A3.51,3.51,0,0,1,68.63,46.2Z"/>
        <line class="cls-4" x1="33.77" y1="22.89" x2="37.57" y2="22.13"/>
        <line class="cls-3" x1="41.16" y1="21.53" x2="45.72" y2="20.51"/>
        <line class="cls-3" x1="51.19" y1="19.71" x2="56.1" y2="18.68"/>
        <path class="cls-5"
              d="M40.33,47.63,39,48a1,1,0,0,1-1.24-.67l-1.64-5.59a1,1,0,0,1,.68-1.24l1.32-.39a1,1,0,0,1,1.24.68L41,46.39A1,1,0,0,1,40.33,47.63Z"/>
        <path class="cls-5"
              d="M68.53,43.66l-1.32.39A1,1,0,0,1,66,43.37l-1.64-5.59A1,1,0,0,1,65,36.54l1.32-.39a1,1,0,0,1,1.24.68l1.64,5.59A1,1,0,0,1,68.53,43.66Z"/>
      </g>
    </symbol>
  </defs>
  <title>cartable</title>
  <use width="76.72" height="87.17" xlink:href="#bag"/>
</svg>
