<svg id="Calque_1" data-name="Calque 1" xmlns="http://www.w3.org/2000/svg" xmlns:xlink="http://www.w3.org/1999/xlink" viewBox="0 0 106.9 53.9"><defs><style>.cls-1{fill:none;stroke:#fff;stroke-miterlimit:10;}</style><symbol id="glasses" data-name="glasses" viewBox="0 0 106.89 53.9"><g id="lunettes"><path class="cls-1" d="M4.88,32.15s-5.41-2.1-4.21-9S7,14.71,12.4,17.72,30.14,27.94,30.14,27.94v7.22l-22-15A12.54,12.54,0,0,0,4.88,32.15Z"/><path class="cls-1" d="M60.24,11.39s3.61,5.11,5.11,3.9.61-11.72,6-10.52S91.51,16.2,91.51,16.2s7.22-2.11,8.72-1.21S72.87-.64,70.77.56,63.25,3.57,60.24,11.39Z"/><path class="cls-1" d="M33.58,37.28s10.52-9.62,32.77-6c0,0,3.61-2.71,10.52-2.11,0,0,9-9.62,27.36-3.9,0,0,3.61-3,1.51-8.72s-29.47,5.71-29.17,9.32c0,0-9-3.31-11.12,2.1,0,0-17.74-7.21-34.28.6C31.17,28.56,28,35.91,33.58,37.28Z"/><path class="cls-1" d="M36.6,34.76S32.51,51.13,43,52.82,60.16,52,60.16,52,68.63,47,64.68,31.23"/><path class="cls-1" d="M79.07,27s-5.64,16.22,7.48,20.32,16.93-12.7,16.93-12.7,1.13-9-.28-9.88"/><line class="cls-1" x1="45.91" y1="50.56" x2="52.97" y2="35.32"/><line class="cls-1" x1="55.37" y1="44.21" x2="58.61" y2="35.89"/><line class="cls-1" x1="86.69" y1="45.91" x2="91.2" y2="34.76"/><line class="cls-1" x1="99.53" y1="25.45" x2="96.57" y2="31.51"/></g></symbol></defs><title>lunette</title><use width="106.9" height="53.9" xlink:href="#glasses"/></svg>