<svg id="Calque_1" data-name="Calque 1" xmlns="http://www.w3.org/2000/svg" xmlns:xlink="http://www.w3.org/1999/xlink"
     viewBox="0 0 80.36 67.12">
  <defs>
    <style>.cls-1{fill:none;stroke:#07161F;stroke-miterlimit:10;}</style>
    <symbol id="hands_heart" data-name="hands heart" viewBox="0 0 83.42 72.05">
      <g id="hand_heart" data-name="hand heart">
        <path class="cls-1"
              d="M42.67,52.55C7,53.77,24.49,35.43,24.49,35.43L30,37.29c5.46,1.87,6.52-1.54,6.52-1.54L34.79,32l-1.7-.53,1.56-.67s-7.23-7.11-13.12-6.75S8.08,38.51,8.08,38.51l-.22,1.57L7.6,41.85C3,53,8.21,71.32,8.21,71.32s16.07.64,14.94-.22,1.52-6.36,1.52-6.36l20.22-6.4C45.38,54.12,42.67,52.55,42.67,52.55Z"/>
        <path class="cls-1" d="M7.87,40.82s9.58-12.08,13.61-12.18,11.61,2.87,11.61,2.87"/>
        <path class="cls-1"
              d="M44,52.1c27.67-21.64,1.93-24.37,1.93-24.37l-2.83,4.86c-2.83,4.85-6,3-6,3l-1.28-3.86.92-1.47-1.63.48s.56-9.92,5.24-13.38,20,2.35,20,2.35l1.25,1L63,21.88C74.16,27.31,82.8,44.42,82.8,44.42S71.16,55.07,71.41,53.71s-5.51-3.83-5.51-3.83l-19.6,8C43,55,44,52.1,44,52.1Z"/>
        <path class="cls-1" d="M62.13,21.27s-15.51-3-18.6-.55-6.77,9.5-6.77,9.5"/>
        <line class="cls-1" x1="16.69" y1="18.02" x2="7.99" y2="11.63"/>
        <line class="cls-1" x1="27.71" y1="12.55" x2="23.12" y2="0.6"/>
        <line class="cls-1" x1="39.35" y1="9.23" x2="41.1" y2="0.09"/>
        <line class="cls-1" x1="54.2" y1="2.26" x2="50.85" y2="11.03"/>
        <line class="cls-1" x1="8.29" y1="26.66" x2="0.17" y2="23.79"/>
      </g>
    </symbol>
  </defs>
  <title>mains</title>
  <use width="83.42" height="72.05" transform="translate(16.64 -8.28) rotate(19.54)" xlink:href="#hands_heart"/>
</svg>
