<svg id="Calque_1" data-name="Calque 1" xmlns="http://www.w3.org/2000/svg" xmlns:xlink="http://www.w3.org/1999/xlink" viewBox="0 0 71.91 67.7"><defs><style>.cls-1,.cls-2{fill:none;stroke:#fff;stroke-miterlimit:10;}.cls-2{stroke-width:0.75px;}</style><symbol id="roller" data-name="roller" viewBox="0 0 71.91 67.7"><g id="roller-3" data-name="roller"><path class="cls-1" d="M3,34a8,8,0,0,1,2.08-3.71,8.34,8.34,0,0,1,4-1.63c4.61-.93,9.34-1.13,14-1.92s9.31-2.24,12.89-5.29,5.86-8,4.75-12.53l27.89,0L68,36.16c0,1.64-.17,3.51-1.47,4.51a5.53,5.53,0,0,1-3.11.81l-12.32.73c-10.25.61-20.51,1.22-30.78,1.22-4.67,0-11.39,1.33-15.82-.45C.59,41.4,2,37.09,3,34Z"/><path class="cls-1" d="M41.37,8.8a4.19,4.19,0,0,1-.77-6.58A7.76,7.76,0,0,1,45.11.84a104.5,104.5,0,0,1,19,.2A12.16,12.16,0,0,1,69,2.25,4.46,4.46,0,0,1,71.4,6.3c-.17,1.66-2,3.07-3.56,2.4"/><path class="cls-1" d="M5.28,43.65a5.23,5.23,0,0,0-2.85-.79A2,2,0,0,0,.5,44.77c.11,1.49,2.09,1.89,3.59,1.88L60.21,46c1.73,0,3.59-.09,5-1.12s1.88-3.43.48-4.45"/><path class="cls-1" d="M14.58,27.8a16.25,16.25,0,0,0,1.82,4.29,6.76,6.76,0,0,0,2,2.25,3.12,3.12,0,0,0,2.92.31,1.6,1.6,0,0,0,.91-2,5,5,0,0,0-.61-1.37,25,25,0,0,0-3.09-4.13"/><path class="cls-1" d="M22.86,26.51c1.61,1.93,2.65,4.42,4.75,5.81a3.56,3.56,0,0,0,2.05.67,1.92,1.92,0,0,0,1.73-1.13,3,3,0,0,0-.75-2.62,24.07,24.07,0,0,0-3.17-3.66"/><path class="cls-1" d="M31.62,24a16.21,16.21,0,0,0,3.58,3.18,5.65,5.65,0,0,0,2.56,1,2.47,2.47,0,0,0,2.37-1.15,2.56,2.56,0,0,0-.19-2.41,8,8,0,0,0-1.71-1.83l-1.64-1.4"/><path class="cls-1" d="M38.47,18.6l1.1.37c2.64.87,5.45,1.75,8.17,1.16a1.66,1.66,0,0,0,1.1-.6,1.5,1.5,0,0,0-.08-1.45,6.08,6.08,0,0,0-3.9-2.75,14.7,14.7,0,0,0-4.76-.57"/><path class="cls-1" d="M41.21,12.4a18.09,18.09,0,0,0,6,.69,3.93,3.93,0,0,0,2.61-1.15,1.88,1.88,0,0,0-.09-2.61"/><circle class="cls-2" cx="52.87" cy="21.09" r="1.93"/><circle class="cls-2" cx="45.58" cy="31.69" r="1.93"/><circle class="cls-2" cx="33.75" cy="36.27" r="1.93"/><circle class="cls-2" cx="24.2" cy="38.02" r="1.93"/><circle class="cls-2" cx="54.52" cy="12.72" r="1.93"/><ellipse class="cls-1" cx="13.5" cy="57.95" rx="9.64" ry="8.69"/><ellipse class="cls-1" cx="57.39" cy="58.5" rx="9.64" ry="8.69"/><circle class="cls-1" cx="12.93" cy="57.58" r="3.78"/><circle class="cls-1" cx="57.43" cy="58.69" r="3.78"/></g></symbol></defs><title>roller</title><use width="71.91" height="67.7" xlink:href="#roller"/></svg>