<svg id="Calque_1" data-name="Calque 1" xmlns="http://www.w3.org/2000/svg" xmlns:xlink="http://www.w3.org/1999/xlink" viewBox="0 0 47.27 78.6"><defs><style>.cls-1{fill:none;stroke:#fff;stroke-miterlimit:10;}.cls-2{fill:#fff;}</style><symbol id="tea" data-name="tea" viewBox="0 0 47.27 78.6"><g id="tea-3" data-name="tea"><path class="cls-1" d="M.66,33.77s10,8.23,30.42,1.91C30.89,28.8,3.53,29.37.66,33.77Z"/><path class="cls-1" d="M.66,33.77,3,73s16.45,11.86,27.17-.57l.95-36.74"/><path class="cls-1" d="M3.92,35.68s13.82-5.83,24.15.87"/><path class="cls-1" d="M31,41.71c5.06-1.44,33.21,16.15-.61,22.77"/><path class="cls-2" d="M12.57,27.47a3,3,0,0,0-1-3.38c-.91-.87-2.11-1.45-3.06-2.5a3.93,3.93,0,0,1-1-1.9A3.17,3.17,0,0,1,8,17.51c.74-1.24,1.84-2,2.33-3.08a4.24,4.24,0,0,0,.16-3.4C10,9.89,9.18,8.86,8.66,7.58a5.8,5.8,0,0,1-.11-4A15.78,15.78,0,0,1,10.3,0,19.18,19.18,0,0,0,9,3.66a5.25,5.25,0,0,0,.34,3.61c.55,1.1,1.41,2.11,2,3.41a5.11,5.11,0,0,1-.15,4.19C10.49,16.19,9.36,17,8.76,18a2.22,2.22,0,0,0-.38,1.56,3.45,3.45,0,0,0,.73,1.55c.74,1,1.91,1.65,2.82,2.65a4.13,4.13,0,0,1,1,1.8A2.35,2.35,0,0,1,12.57,27.47Z"/><path class="cls-2" d="M19.23,10.28a8.75,8.75,0,0,0,0,3.06,3.52,3.52,0,0,0,1.7,2.22,7,7,0,0,1,2.44,2.22,3.91,3.91,0,0,1,0,3.45,3.7,3.7,0,0,1-1.16,1.36,4.81,4.81,0,0,1-1.58.66,3.05,3.05,0,0,0-1.25.53,2.09,2.09,0,0,0-.67,1.09,8.4,8.4,0,0,0-.06,3A4.44,4.44,0,0,1,18,30.91c1-2-.56-3.93-.08-6.23a2.78,2.78,0,0,1,.85-1.57,4.13,4.13,0,0,1,1.56-.77,4.08,4.08,0,0,0,1.28-.55,2.7,2.7,0,0,0,.83-1,3,3,0,0,0,.08-2.58,6.83,6.83,0,0,0-2-2A5.42,5.42,0,0,1,19.28,15a3.59,3.59,0,0,1-.57-1.59A8,8,0,0,1,19.23,10.28Z"/></g></symbol></defs><title>thé</title><use width="47.27" height="78.6" xlink:href="#tea"/></svg>